<svg width="18" height="18" viewBox="0 0 18 18" fill="none" xmlns="http://www.w3.org/2000/svg">
<g clip-path="url(#clip0_2485_21861)">
<path d="M17.25 13.5C17.25 13.8978 17.092 14.2794 16.8107 14.5607C16.5294 14.842 16.1478 15 15.75 15H2.25C1.85218 15 1.47064 14.842 1.18934 14.5607C0.908035 14.2794 0.75 13.8978 0.75 13.5V5.25C0.75 4.85217 0.908035 4.47064 1.18934 4.18934C1.47064 3.90804 1.85218 3.75 2.25 3.75H5.25L6.75 1.5H11.25L12.75 3.75H15.75C16.1478 3.75 16.5294 3.90804 16.8107 4.18934C17.092 4.47064 17.25 4.85217 17.25 5.25V13.5Z" stroke="white" stroke-width="1.63636" stroke-linecap="round" stroke-linejoin="round"/>
<path d="M9 12C10.6569 12 12 10.6569 12 9C12 7.34315 10.6569 6 9 6C7.34315 6 6 7.34315 6 9C6 10.6569 7.34315 12 9 12Z" stroke="white" stroke-width="1.63636" stroke-linecap="round" stroke-linejoin="round"/>
</g>
<defs>
<clipPath id="clip0_2485_21861">
<rect width="18" height="18" fill="white"/>
</clipPath>
</defs>
</svg>
