<svg width="23" height="23" viewBox="0 0 23 23" fill="none" xmlns="http://www.w3.org/2000/svg">
<g id="Group">
<path id="Vector" d="M11.5712 0.75H11.4311C10.812 0.75 10.3101 1.24684 10.3101 1.85973V5.05021C10.3101 5.66309 10.812 6.15994 11.4311 6.15994H11.5712C12.1903 6.15994 12.6922 5.66309 12.6922 5.05021V1.85973C12.6922 1.24684 12.1903 0.75 11.5712 0.75Z" fill="#23C75A"/>
<path id="Vector_2" d="M3.87175 3.85452L3.77266 3.95261C3.33488 4.38598 3.33488 5.08863 3.77267 5.522L6.05164 7.77801C6.48942 8.21139 7.19922 8.21139 7.63701 7.77801L7.73609 7.67993C8.17388 7.24655 8.17388 6.54391 7.73609 6.11053L5.45712 3.85452C5.01933 3.42114 4.30954 3.42114 3.87175 3.85452Z" fill="#23C75A" fill-opacity="0.1"/>
<path id="Vector_3" d="M0.5 11.4293V11.568C0.5 12.1809 1.0019 12.6777 1.62103 12.6777H4.84398C5.4631 12.6777 5.965 12.1809 5.965 11.568V11.4293C5.965 10.8164 5.4631 10.3196 4.84398 10.3196H1.62103C1.0019 10.3196 0.5 10.8164 0.5 11.4293Z" fill="#23C75A" fill-opacity="0.2"/>
<path id="Vector_4" d="M3.77376 19.0518L3.87284 19.1499C4.31063 19.5832 5.02042 19.5832 5.45821 19.1499L7.73718 16.8939C8.17497 16.4605 8.17497 15.7578 7.73718 15.3245L7.6381 15.2264C7.20031 14.793 6.49052 14.793 6.05273 15.2264L3.77376 17.4824C3.33597 17.9158 3.33597 18.6184 3.77376 19.0518Z" fill="#23C75A" fill-opacity="0.4"/>
<path id="Vector_5" d="M11.4298 22.25H11.5699C12.189 22.25 12.6909 21.7532 12.6909 21.1403V17.9498C12.6909 17.3369 12.189 16.8401 11.5699 16.8401H11.4298C10.8106 16.8401 10.3087 17.3369 10.3087 17.9498V21.1403C10.3087 21.7532 10.8106 22.25 11.4298 22.25Z" fill="#23C75A" fill-opacity="0.6"/>
<path id="Vector_6" d="M19.1287 19.1484L19.2278 19.0503C19.6656 18.6169 19.6656 17.9143 19.2278 17.4809L16.9489 15.2249C16.5111 14.7915 15.8013 14.7915 15.3635 15.2249L15.2644 15.323C14.8266 15.7564 14.8266 16.459 15.2644 16.8924L17.5434 19.1484C17.9812 19.5818 18.6909 19.5818 19.1287 19.1484Z" fill="#23C75A" fill-opacity="0.8"/>
<path id="Vector_7" d="M22.5 11.5697V11.431C22.5 10.8181 21.9981 10.3213 21.379 10.3213H18.156C17.5369 10.3213 17.035 10.8181 17.035 11.431V11.5697C17.035 12.1826 17.5369 12.6795 18.156 12.6795H21.379C21.9981 12.6795 22.5 12.1826 22.5 11.5697Z" fill="#23C75A"/>
</g>
</svg>
