<svg width="375" height="480" viewBox="0 0 375 480" fill="none" xmlns="http://www.w3.org/2000/svg">
<g opacity="0.05">
<path d="M101.481 403.273C68.5074 403.273 39.9611 383.362 24.9916 349.851C16.1859 330.135 12.4378 306.981 13.5288 279.066C15.7233 222.89 30.3434 164.186 58.2714 115.191C31.0724 98.3759 -5.13592 82.3205 -53.3148 69.5129C-66.7308 65.9458 -74.717 52.1779 -71.15 38.7619C-67.5855 25.3409 -53.81 17.3446 -40.4016 20.9242C-1.0787 31.374 45.5969 47.9925 87.044 74.01C117.227 38.7393 156.952 12.8827 206.722 3.67727C257.666 -5.74685 310.993 3.14184 353.026 28.0583C407.248 60.2094 444.565 116.113 455.401 181.441C458.694 201.297 466.975 238.838 472.317 255.677C476.515 268.912 469.189 283.042 455.954 287.24C442.732 291.423 428.592 284.113 424.392 270.878C418.351 251.829 409.437 211.578 405.802 189.666C397.522 139.758 368.209 95.5077 327.388 71.3052C295.669 52.5047 255.019 45.8734 215.867 53.113C179.744 59.7946 150.338 78.4216 127.335 104.231C142.792 118.187 156.522 134.036 167.567 152.04C187.265 184.143 197.811 223.109 198.919 267.862C199.641 297.195 195.772 321.498 187.089 342.156C171.662 378.877 138.418 402.866 102.398 403.271C102.094 403.271 101.785 403.273 101.481 403.273ZM98.4841 146.067C76.9386 186.413 65.5789 234.7 63.7665 281.029C62.9822 301.046 65.3149 316.85 70.898 329.346C77.7154 344.607 88.5749 352.993 101.503 352.995C101.614 352.995 101.724 352.995 101.837 352.995C117.81 352.817 133.081 340.917 140.743 322.679C146.618 308.703 149.207 291.182 148.661 269.101C147.789 233.828 139.509 202.438 124.72 178.331C118.64 168.425 110.198 157.412 98.4841 146.067Z" fill="#26D961"/>
<path d="M307.094 479.585C235.045 479.585 197.667 412.274 195.971 409.142C189.354 396.938 193.889 381.679 206.096 375.065C218.27 368.467 233.474 372.961 240.117 385.088C241.417 387.42 269.72 437.004 319.686 428.164C370.414 419.199 379.566 361.124 379.652 360.538C381.683 346.803 394.488 337.321 408.193 339.345C421.928 341.376 431.415 354.153 429.387 367.886C428.816 371.739 414.447 462.469 328.434 477.672C321.011 478.982 313.897 479.585 307.092 479.585H307.094Z" fill="#26D961"/>
</g>
</svg>
