<svg width="281" height="54" viewBox="0 0 281 54" fill="none" xmlns="http://www.w3.org/2000/svg">
<g clip-path="url(#clip0_500_4052)">
<path d="M64.418 26.958C64.418 11.9064 76.1748 0 91.0766 0C105.978 0 117.736 11.9064 117.736 26.958C117.736 42.0097 105.979 53.916 91.0766 53.916C76.1745 53.916 64.418 42.0097 64.418 26.958ZM111.221 26.958C111.221 15.2761 102.309 6.06541 91.0766 6.06541C79.8439 6.06541 71.0082 15.2761 71.0082 26.958C71.0082 38.5647 79.8443 47.7757 91.0766 47.7757C102.309 47.7757 111.221 38.565 111.221 26.958Z" fill="#3F3F3F"/>
<path d="M123.051 3.8938C123.051 2.17148 124.474 0.748535 126.196 0.748535H147.463C149.111 0.748535 150.383 2.02163 150.383 3.66902C150.383 5.31641 149.111 6.66443 147.463 6.66443H129.416V23.9625H147.463C149.111 23.9625 150.383 25.3106 150.383 26.958C150.383 28.6053 149.111 29.8784 147.463 29.8784H129.416V50.5463C129.416 52.2686 127.993 53.7665 126.196 53.7665C124.474 53.7665 123.051 52.2689 123.051 50.5463V3.8938H123.051Z" fill="#3F3F3F"/>
<path d="M155.7 3.8938C155.7 2.17148 157.122 0.748535 158.845 0.748535H180.112C181.759 0.748535 183.032 2.02163 183.032 3.66902C183.032 5.31641 181.759 6.66443 180.112 6.66443H162.065V23.9625H180.112C181.759 23.9625 183.032 25.3106 183.032 26.958C183.032 28.6053 181.759 29.8784 180.112 29.8784H162.065V50.5463C162.065 52.2686 160.642 53.7665 158.844 53.7665C157.122 53.7665 155.699 52.2689 155.699 50.5463V3.8938H155.7Z" fill="#3F3F3F"/>
<path d="M188.348 3.36976C188.348 1.57251 189.771 0.149902 191.493 0.149902C193.291 0.149902 194.714 1.57285 194.714 3.36976V50.5464C194.714 52.2687 193.291 53.7666 191.493 53.7666C189.771 53.7666 188.348 52.269 188.348 50.5464V3.36976Z" fill="#3F3F3F"/>
<path d="M199.954 26.958C199.954 11.9064 211.711 0 226.613 0C235 0 242.263 3.81894 246.906 9.43512C247.505 10.1091 247.805 10.9327 247.805 11.6816C247.805 13.4039 246.382 14.8265 244.585 14.8265C243.761 14.8265 242.862 14.3024 242.039 13.5534C238.444 9.06049 233.053 6.06508 226.613 6.06508C215.38 6.06508 206.544 15.2758 206.544 26.9577C206.544 38.5644 215.38 47.7754 226.613 47.7754C233.053 47.7754 238.444 44.7803 242.039 40.3619C242.862 39.5381 243.761 39.0888 244.585 39.0888C246.382 39.0888 247.805 40.4369 247.805 42.2341C247.805 42.9081 247.505 43.8066 246.906 44.4057C242.263 50.0968 235 53.9157 226.613 53.9157C211.711 53.9157 199.954 42.0097 199.954 26.958Z" fill="#3F3F3F"/>
<path d="M253.645 3.8938C253.645 2.17148 255.067 0.748535 256.79 0.748535H278.057C279.704 0.748535 280.977 2.02163 280.977 3.66902C280.977 5.31641 279.704 6.66443 278.057 6.66443H260.01V23.9625H278.057C279.704 23.9625 280.977 25.3106 280.977 26.958C280.977 28.6053 279.704 29.8784 278.057 29.8784H260.01V47.2515H278.057C279.704 47.2515 280.977 48.5246 280.977 50.172C280.977 51.8194 279.704 53.1674 278.057 53.1674H256.79C255.067 53.1674 253.645 51.7444 253.645 49.9475V3.8938Z" fill="#3F3F3F"/>
<path d="M23.0843 54C18.6967 54 14.8982 51.3504 12.9062 46.8913C11.7345 44.2678 11.2358 41.1868 11.3809 37.4722C11.6729 29.9972 13.6187 22.1857 17.3346 15.6661C13.7154 13.4286 8.8973 11.2919 2.48636 9.58829C0.701152 9.11364 -0.361541 7.2816 0.113108 5.49607C0.587423 3.71086 2.42046 2.6485 4.20466 3.12248C9.43684 4.51298 15.6481 6.72433 21.1636 10.1867C25.1799 5.49339 30.4656 2.05277 37.0883 0.827842C43.8672 -0.425848 50.9632 0.75626 56.5563 4.07245C63.7713 8.35032 68.7366 15.7892 70.1789 24.482C70.6171 27.1242 71.719 32.1196 72.4298 34.3604C72.9884 36.1215 72.0136 38.0017 70.2525 38.5603C68.4931 39.1172 66.6115 38.1442 66.0526 36.3831C65.2488 33.8483 64.0627 28.4923 63.579 25.5765C62.4772 18.9354 58.5766 13.0473 53.1447 9.82712C48.9244 7.32475 43.5149 6.44235 38.3055 7.40604C33.4985 8.29513 29.5855 10.7737 26.5249 14.2077C28.581 16.0645 30.4087 18.1745 31.8782 20.5695C34.4993 24.8413 35.9025 30.0263 36.05 35.9813C36.146 39.8846 35.6312 43.1185 34.4759 45.8674C32.4231 50.7537 27.9994 53.9458 23.2064 53.9996C23.1659 53.9996 23.1247 54.0003 23.0843 54.0003V54ZM22.6856 19.775C19.8186 25.1437 18.307 31.569 18.0658 37.7338C17.9615 40.3974 18.2719 42.5003 19.0148 44.1631C19.9219 46.1938 21.367 47.3097 23.0873 47.3101C23.102 47.3101 23.1167 47.3101 23.1318 47.3101C25.2572 47.2863 27.2892 45.7028 28.3088 43.276C29.0905 41.4162 29.435 39.0848 29.3624 36.1466C29.2464 31.4529 28.1445 27.2761 26.1767 24.0683C25.3675 22.7497 24.2443 21.2846 22.6856 19.775Z" fill="#3F3F3F"/>
</g>
<defs>
<clipPath id="clip0_500_4052">
<rect width="280.977" height="54" fill="white"/>
</clipPath>
</defs>
</svg>
